<svg xmlns:inkscape="http://www.inkscape.org/namespaces/inkscape" xmlns:sodipodi="http://sodipodi.sourceforge.net/DTD/sodipodi-0.dtd" xmlns="http://www.w3.org/2000/svg" xmlns:svg="http://www.w3.org/2000/svg" width="82.285416mm" height="31.982555mm" viewBox="0 0 82.285416 31.982555" id="svg5" inkscape:version="1.1 (c4e8f9e, 2021-05-24)" sodipodi:docname="wix-v2.svg"><defs id="defs2"></defs><g inkscape:label="Layer 1" inkscape:groupmode="layer" id="layer1" transform="translate(-26.654958,-88.016504)"><g id="g842" transform="matrix(0.19228593,0,0,0.19228593,37.897202,92.384735)"><path fill="#fbbd71" d="m 178,2.3 c -6,3 -8.6,8.6 -8.6,23.8 0,0 3,-3 7.8,-4.8 3.5,-1.3 6,-3 7.8,-4.3 5.2,-3.9 6,-8.6 6,-16.8 -0.1,0 -8.3,-0.5 -13,2.1 z" id="path824"></path><path fill="#000000" d="m 141.3,5.8 c -5.2,4.3 -6.5,11.7 -6.5,11.7 L 118,81.9 104.2,29.2 C 102.9,23.6 100.3,16.7 96.4,11.9 91.6,5.8 81.6,5.4 80.4,5.4 c -0.9,0 -10.8,0.4 -16,6.5 -3.9,4.8 -6.5,11.7 -7.8,17.3 L 43.6,81.9 26.8,17.5 c 0,0 -1.3,-6.9 -6.5,-11.7 C 12.1,-1.6 0,0.2 0,0.2 l 32,120.5 c 0,0 10.4,0.9 15.6,-1.7 C 54.5,115.5 58,113 61.9,96.5 65.8,81.8 76.2,39 77,36 c 0.4,-1.3 1.3,-5.2 3.9,-5.2 2.6,0 3.5,3.5 3.9,5.2 0.9,3 11.2,45.8 15.1,60.5 4.3,16.4 7.3,19 14.3,22.5 5.2,2.6 15.6,1.7 15.6,1.7 L 161.6,0.2 c 0,0 -12.1,-1.7 -20.3,5.6 z" id="path826"></path><path fill="#000000" d="m 190.9,19.6 c 0,0 -2.2,3 -6.5,5.6 -3,1.7 -5.6,2.6 -8.6,4.3 -5.2,2.6 -6.5,5.2 -6.5,9.1 v 1.3 6.5 0 1.3 72.6 c 0,0 8.2,0.9 13.4,-1.7 6.9,-3.5 8.2,-6.9 8.2,-21.6 v -72.6 0 z" id="path828"></path><path fill="#000000" d="M 270.4,60.7 311,0.6 c 0,0 -16.8,-3 -25.5,4.8 -5.6,4.8 -11.2,13.8 -11.2,13.8 l -14.7,21.6 c -0.9,1.3 -1.7,2.2 -3,2.2 -1.3,0 -2.6,-1.3 -3,-2.2 L 238.9,19.2 c 0,0 -6,-8.6 -11.2,-13.8 -8.6,-7.8 -25.5,-4.8 -25.5,-4.8 l 39.3,60 -40.2,60 c 0,0 17.7,2.2 26.4,-5.6 5.6,-4.8 10.8,-13 10.8,-13 l 14.7,-21.6 c 0.9,-1.3 1.7,-2.2 3,-2.2 1.3,0 2.6,1.3 3,2.2 l 14.7,21.6 c 0,0 5.6,8.2 10.8,13 8.6,7.8 25.9,5.6 25.9,5.6 z" id="path830"></path></g></g></svg>